Coordinates
version=1
nRows=17
nColumns=40
inDegrees=yes

Units are S.I. units (second, meters, Newtons, ...)
If the header above contains a line with 'inDegrees', this indicates whether rotational values are in degrees (yes) or radians (no).

endheader
time	pelvis_tilt	pelvis_list	pelvis_rotation	pelvis_tx	pelvis_ty	pelvis_tz	hip_flexion_r	hip_adduction_r	hip_rotation_r	knee_angle_r	knee_angle_r_beta	ankle_angle_r	subtalar_angle_r	mtp_angle_r	hip_flexion_l	hip_adduction_l	hip_rotation_l	knee_angle_l	knee_angle_l_beta	ankle_angle_l	subtalar_angle_l	mtp_angle_l	lumbar_extension	lumbar_bending	lumbar_rotation	arm_flex_r	arm_add_r	arm_rot_r	elbow_flex_r	pro_sup_r	wrist_flex_r	wrist_dev_r	arm_flex_l	arm_add_l	arm_rot_l	elbow_flex_l	pro_sup_l	wrist_flex_l	wrist_dev_l
      5.00000000	     41.59006932	      3.17526697	   -178.33474211	      0.40185783	      0.69787069	     -0.59473354	     90.75333088	    -12.91795196	      0.27615600	     57.90809410	      1.01068691	     13.86276434	      0.00000000	      0.00000000	     93.13911147	    -11.54798188	      4.67603961	     58.62904549	      1.02326988	     12.33229569	      0.00000000	      0.00000000	    -49.92357018	     -1.98010905	     15.58571983	    -89.17231834	   -119.78635633	    -77.60356128	     61.44494176	     50.92232878	      0.00000000	      0.00000000	     76.68040397	      8.42373982	     32.17122990	     12.81059963	     27.25449170	      0.00000000	      0.00000000
      5.00500000	     41.59531004	      3.29989145	   -178.26215636	      0.40170902	      0.69818563	     -0.59450415	     90.65428275	    -13.03732645	      0.04053969	     57.83053458	      1.00933324	     13.85292769	      0.00000000	      0.00000000	     93.11172140	    -11.42202206	      4.88298768	     58.54613699	      1.02182285	     12.35596525	      0.00000000	      0.00000000	    -49.96235090	     -1.79736017	     15.62611262	    -89.18392966	   -119.78665223	    -77.58533393	     61.53664697	     48.85516991	      0.00000000	      0.00000000	     76.64738484	      8.33107614	     32.37365075	     12.79547050	     29.02324529	      0.00000000	      0.00000000
      5.01000000	     41.66750043	      3.12795387	   -178.33371132	      0.40165678	      0.69832992	     -0.59477703	     90.74973526	    -12.95708535	      0.25111476	     57.76205791	      1.00813809	     13.72611795	      0.00000000	      0.00000000	     93.08174125	    -11.48673691	      4.71123299	     58.48091597	      1.02068453	     12.30396501	      0.00000000	      0.00000000	    -49.93407744	     -1.99168140	     15.52392283	    -89.17771473	   -119.78653882	    -77.49242879	     61.66330553	     48.12294369	      0.00000000	      0.00000000	     76.71961719	      8.35965274	     32.03638388	     12.55032219	     30.98198642	      0.00000000	      0.00000000
      5.01500000	     41.58940629	      3.12222848	   -178.31968948	      0.40151328	      0.69875826	     -0.59472100	     90.61171792	    -12.98204904	      0.21488815	     57.68753703	      1.00683746	     13.77321135	      0.00000000	      0.00000000	     92.94029250	    -11.45200132	      4.73732034	     58.42595018	      1.01972520	     12.38546910	      0.00000000	      0.00000000	    -50.07950686	     -2.00056094	     15.48433540	    -89.18203956	   -119.78714864	    -77.83981269	     61.43345143	     51.79640186	      0.00000000	      0.00000000	     76.59810730	      7.55850256	     36.27847365	     13.34470031	     27.43989912	      0.00000000	      0.00000000
      5.02000000	     41.62637790	      3.14593600	   -178.31792744	      0.40140501	      0.69900846	     -0.59470678	     90.59042484	    -13.02015715	      0.09785658	     57.60159571	      1.00533750	     13.70392603	      0.00000000	      0.00000000	     92.93051482	    -11.42651520	      4.79513574	     58.36912471	      1.01873341	     12.35220186	      0.00000000	      0.00000000	    -50.08998210	     -1.95894655	     15.48944412	    -89.19242947	   -119.78703133	    -77.89716749	     61.48097366	     51.38701035	      0.00000000	      0.00000000	     76.59621423	      7.60073654	     35.72477461	     13.33229565	     27.96877572	      0.00000000	      0.00000000
      5.02500000	     41.72994470	      3.20015538	   -178.35312962	      0.40134092	      0.69914451	     -0.59462924	     90.62032749	    -13.00458845	     -0.00831979	     57.48704963	      1.00333829	     13.61748259	      0.00000000	      0.00000000	     93.01418899	    -11.41986637	      4.90339876	     58.33203516	      1.01808607	     12.34690360	      0.00000000	      0.00000000	    -50.01905793	     -1.89985937	     15.54412284	    -89.19041159	   -119.78754641	    -77.85809263	     61.53773363	     50.15593136	      0.00000000	      0.00000000	     76.62814560	      7.94816530	     33.71170736	     12.95985688	     29.24205478	      0.00000000	      0.00000000
      5.03000000	     41.65744220	      3.10625311	   -178.30199768	      0.40110614	      0.69966290	     -0.59461078	     90.50326767	    -13.09031861	      0.00859402	     57.41136405	      1.00201733	     13.61154173	      0.00000000	      0.00000000	     92.80101162	    -11.37354367	      4.77362300	     58.19391250	      1.01567538	     12.34696886	      0.00000000	      0.00000000	    -50.16256573	     -1.93681833	     15.44339260	    -89.19445270	   -119.78680658	    -77.95538048	     61.54513145	     50.16279932	      0.00000000	      0.00000000	     76.73351021	      7.94752390	     34.04854726	     12.82399592	     29.02728139	      0.00000000	      0.00000000
      5.03500000	     41.70219889	      3.08364338	   -178.29419215	      0.40101242	      0.69987670	     -0.59458077	     90.51064240	    -13.12467627	     -0.02386940	     57.34624766	      1.00088084	     13.56661118	      0.00000000	      0.00000000	     92.79577278	    -11.34460622	      4.76357451	     58.14798899	      1.01487386	     12.33332258	      0.00000000	      0.00000000	    -50.16305006	     -1.93313550	     15.40911787	    -89.19591618	   -119.78678626	    -77.93415706	     61.54731500	     50.05284169	      0.00000000	      0.00000000	     76.78798935	      7.97002444	     33.89644627	     12.72761833	     29.21943310	      0.00000000	      0.00000000
      5.04000000	     41.76993932	      3.29780872	   -178.33921323	      0.40094527	      0.70002505	     -0.59436626	     90.44043958	    -13.07524693	     -0.29029902	     57.22318699	      0.99873302	     13.47057755	      0.00000000	      0.00000000	     92.93235297	    -11.36800588	      5.02096221	     58.17508592	      1.01534679	     12.25069737	      0.00000000	      0.00000000	    -50.12755005	     -1.73409895	     15.61593090	    -89.20625166	   -119.78600343	    -78.03554426	     61.57558658	     49.28380508	      0.00000000	      0.00000000	     76.70382747	      8.19526854	     32.31926474	     12.70478952	     30.70561367	      0.00000000	      0.00000000
      5.04500000	     41.83740554	      3.02793205	   -178.34731454	      0.40094598	      0.70021385	     -0.59459902	     90.57575911	    -13.07553156	      0.03280310	     57.19995640	      0.99832757	     13.48855816	      0.00000000	      0.00000000	     92.81731004	    -11.37106514	      4.72996397	     58.02263700	      1.01268606	     12.33476138	      0.00000000	      0.00000000	    -50.11312911	     -1.96357705	     15.37083441	    -89.19876467	   -119.78739199	    -78.04859009	     61.66954163	     49.15974167	      0.00000000	      0.00000000	     76.80918437	      8.10632475	     32.58194313	     12.55449116	     30.87863167	      0.00000000	      0.00000000
      5.05000000	     42.00427607	      3.15397100	   -178.28861801	      0.40098560	      0.70015057	     -0.59427816	     90.66307422	    -13.16581650	     -0.14459393	     57.11296921	      0.99680936	     13.54155597	      0.00000000	      0.00000000	     93.01192837	    -11.25399498	      4.92131637	     58.01590268	      1.01256852	     12.34494172	      0.00000000	      0.00000000	    -49.94408565	     -1.77275574	     15.43958084	    -89.18408346	   -119.78932174	    -77.91079518	     61.59866052	     48.92070562	      0.00000000	      0.00000000	     76.65480526	      8.05441168	     32.60191368	     12.73715807	     31.24905513	      0.00000000	      0.00000000
      5.05500000	     41.91869936	      2.92755925	   -178.40529610	      0.40066972	      0.70078506	     -0.59467020	     90.54928183	    -13.02585707	      0.07585392	     56.99576680	      0.99476379	     13.52217345	      0.00000000	      0.00000000	     92.73948712	    -11.46349792	      4.51054274	     57.88171451	      1.01022649	     12.43486464	      0.00000000	      0.00000000	    -50.12693519	     -2.04548458	     15.29521801	    -89.18200143	   -119.78955507	    -77.73231844	     62.11383655	     42.77298393	      0.00000000	      0.00000000	     76.86321354	      8.21176429	     30.97979380	     12.05365319	     38.02252454	      0.00000000	      0.00000000
      5.06000000	     41.96061238	      2.84188241	   -178.39536698	      0.40071709	      0.70100111	     -0.59462398	     90.57246607	    -13.02777099	      0.22118424	     56.90405934	      0.99316319	     13.31617548	      0.00000000	      0.00000000	     92.70579814	    -11.43725854	      4.43156297	     57.78178070	      1.00848232	     12.23950931	      0.00000000	      0.00000000	    -50.12889764	     -2.10027819	     15.26108973	    -89.17327858	   -119.78924976	    -77.82923055	     61.99439675	     43.94684809	      0.00000000	      0.00000000	     77.03744537	      8.19283878	     32.48136428	     11.73661080	     37.06921914	      0.00000000	      0.00000000
      5.06500000	     41.95500653	      2.93746864	   -178.36084362	      0.40067666	      0.70129307	     -0.59445850	     90.49054951	    -13.09718581	      0.01411039	     56.83096863	      0.99188752	     13.36108244	      0.00000000	      0.00000000	     92.70255698	    -11.41123646	      4.51325384	     57.74623337	      1.00786190	     12.25110680	      0.00000000	      0.00000000	    -50.17934656	     -2.00556379	     15.30874306	    -89.18423695	   -119.78939901	    -78.39029256	     61.46299695	     51.81716366	      0.00000000	      0.00000000	     76.72203619	      7.14905144	     38.02884616	     13.38502141	     28.49522462	      0.00000000	      0.00000000
      5.07000000	     41.97078856	      2.98866048	   -178.27146843	      0.40059117	      0.70158330	     -0.59416049	     90.45955865	    -13.23588490	     -0.14003343	     56.80234569	      0.99138796	     13.27145420	      0.00000000	      0.00000000	     92.67335220	    -11.30650411	      4.56267305	     57.64891227	      1.00616333	     12.11713091	      0.00000000	      0.00000000	    -50.20478189	     -1.87303182	     15.32400495	    -89.17343533	   -119.78999530	    -78.37311982	     61.33574515	     51.62218713	      0.00000000	      0.00000000	     76.85528369	      7.38965264	     37.83529587	     12.94879486	     28.64441785	      0.00000000	      0.00000000
      5.07500000	     42.12780400	      2.85007641	   -178.31846044	      0.40069960	      0.70161451	     -0.59419298	     90.60074035	    -13.12138122	      0.17506938	     56.67079651	      0.98909199	     13.23536379	      0.00000000	      0.00000000	     92.74949484	    -11.34282566	      4.40101945	     57.57378992	      1.00485220	     12.10447570	      0.00000000	      0.00000000	    -50.08856637	     -1.97180806	     15.20404869	    -89.18484024	   -119.79015242	    -78.41583406	     61.57751172	     50.24105320	      0.00000000	      0.00000000	     76.82857907	      7.56571724	     35.94623711	     12.81665066	     30.53141034	      0.00000000	      0.00000000
      5.08000000	     42.21742024	      2.81358183	   -178.31002919	      0.40071006	      0.70179581	     -0.59409832	     90.65014339	    -13.12248558	      0.23939051	     56.57429385	      0.98740770	     13.18565644	      0.00000000	      0.00000000	     92.76764128	    -11.32235179	      4.34181714	     57.45868002	      1.00284315	     12.03919019	      0.00000000	      0.00000000	    -50.04415904	     -1.96566776	     15.15897208	    -89.18356198	   -119.78983503	    -78.41924320	     61.64878357	     49.52815940	      0.00000000	      0.00000000	     76.87675849	      7.69715611	     35.21774799	     12.63000954	     31.47091487	      0.00000000	      0.00000000
